<svg xmlns="http://www.w3.org/2000/svg" width="270" height="126" viewBox="0 0 270 126"><path fill="none" stroke="#000" stroke-miterlimit="10" d="M81.523 57c13.532 5.8 5.405 9.234 5.405 9.234-14.792.86-65.426 5.422-75.225 12.838-8.333 6.306-14.29 26.177.9 33.834C33.312 123.346 81.3 16.91 77.02 25.693c-4.28 8.784-1.802 59.234 11.036 64.414M120.26 63c4.28 8.414-4.504 21.477-4.504 21.477-23.46 25.2-5.856-24.55-10.36-27.027-4.505-2.477-7.883 8.784-13.39 20.233-5.61 11.662 7.76-26.99.552-21.585"/><path fill="none" stroke="#000" stroke-miterlimit="10" d="M132.198 46.865c-13.45 8.108-16.36 26.714-6.757 26.714 7.66 0 13.978-5.85 13.74-25.14-.186-15.068-14.64 3.308-18.92 7.137"/><path fill="none" stroke="#000" stroke-miterlimit="10" d="M140.532 1.595c-19.595 11.712-48.832 127.532-7.658 103.153 17.117-10.135 20.3-50.66 6.313-37.387M112.034 38.532c2.147-2.928 16.56-7.883 28.273-10.36"/><path fill="none" stroke="#000" stroke-miterlimit="10" d="M147.965 40.108c-4.956 2.703-8.52 20.132-7.66 22.892.862 2.76 16.893-31 17.343-22.892s-12.72 33.458 1.126 34.685c10.36.918 19.82-21.847 14.19-24.55M165.306 33.35c-4.505 26.352-2.782 28.86 9.34 15.542M193.01 23.44c-13.74 3.154-19.145 30.18-14.64 27.704 4.504-2.477 15.09-14.414 14.64-26.802M194.36 23.44c-3.378 21.625-6.212 50.31 7.207 39.56 10.172-8.148 12.838-16.36 14.19-22.44M199.766 66.91c-13.063 11.937 51.973 1.047 49.55-15.606-2.027-13.93-18.103-8.477-20.946-6.917-12.613 6.917-21.396 32.883-18.468 35.81 2.928 2.93 9.75-11.936 13.805-9.008 4.054 2.927-7.273 2.98-5.697 3.63M115.757 118.937C109.9 116.234 252.243 67.86 255.17 73.58"/></svg>